name rise36.2859peak64.2979fall75.1499.mot
datacolumns 19
datarows 20
range 7.19664100000000 7.22830900000000
endheader
time	ground_force1_vx	ground_force1_vy	ground_force1_vz	ground_force1_px	ground_force1_py	ground_force1_pz	ground_force2_vx	ground_force2_vy	ground_force2_vz	ground_force2_px	ground_force2_py	ground_force2_pz	ground_torque1_x	ground_torque1_y	ground_torque1_z	ground_torque2_x	ground_torque2_y	ground_torque2_z	
7.19664100000000	-38.17384700000000	788.07373500000006	54.22165900000000	0.19622300000000	0.00000000000000	0.10162400000000	-11.58582900000000	33.77015200000000	7.85574700000000	0.37899200000000	0.00000000000000	-0.08556200000000	0.00000000000000	28.18819200000000	0.00000000000000	0.00000000000000	4.60834200000000	0.00000000000000	
7.19830200000000	-38.40537700000000	784.61879399999998	53.91468300000000	0.19541300000000	0.00000000000000	0.10161200000000	-13.15872600000000	40.19716500000000	9.06898000000000	0.38242600000000	0.00000000000000	-0.08648300000000	0.00000000000000	27.99331600000000	0.00000000000000	0.00000000000000	5.37690800000000	0.00000000000000	
7.19997100000000	-38.65342700000000	781.07958199999996	53.59085600000000	0.19460000000000	0.00000000000000	0.10159700000000	-14.57269000000000	46.71666600000000	10.21541000000000	0.38565900000000	0.00000000000000	-0.08733400000000	0.00000000000000	27.79749400000000	0.00000000000000	0.00000000000000	6.12139900000000	0.00000000000000	
7.20164300000000	-38.91858700000000	777.45764099999997	53.25043300000000	0.19378400000000	0.00000000000000	0.10158000000000	-15.78230700000000	53.21743600000000	11.26441100000000	0.38871700000000	0.00000000000000	-0.08812400000000	0.00000000000000	27.60099800000000	0.00000000000000	0.00000000000000	6.82337800000000	0.00000000000000	
7.20330500000000	-39.20139700000000	773.75444200000004	52.89368500000000	0.19296400000000	0.00000000000000	0.10155800000000	-16.75474400000000	59.60899800000000	12.19243500000000	0.39162300000000	0.00000000000000	-0.08886100000000	0.00000000000000	27.40409200000000	0.00000000000000	0.00000000000000	7.46807800000000	0.00000000000000	
7.20498600000000	-39.50234100000000	769.97138600000005	52.52089600000000	0.19214200000000	0.00000000000000	0.10153400000000	-17.47086600000000	65.82602799999999	12.98390600000000	0.39439600000000	0.00000000000000	-0.08955000000000	0.00000000000000	27.20703400000000	0.00000000000000	0.00000000000000	8.04502700000000	0.00000000000000	
7.20664000000000	-39.82184300000000	766.10979099999997	52.13236600000000	0.19131700000000	0.00000000000000	0.10150600000000	-17.92506100000000	71.83002000000000	13.63132800000000	0.39705100000000	0.00000000000000	-0.09019700000000	0.00000000000000	27.01007300000000	0.00000000000000	0.00000000000000	8.54823000000000	0.00000000000000	
7.20830400000000	-40.16026700000000	762.17088899999999	51.72840700000000	0.19049200000000	0.00000000000000	0.10147400000000	-18.12398000000000	77.60844899999999	14.13471000000000	0.39960100000000	0.00000000000000	-0.09080600000000	0.00000000000000	26.81344500000000	0.00000000000000	0.00000000000000	8.97595400000000	0.00000000000000	
7.20997500000000	-40.51790900000000	758.15582400000005	51.30934000000000	0.18966500000000	0.00000000000000	0.10143800000000	-18.08448500000000	83.17194400000000	14.50047800000000	0.40205700000000	0.00000000000000	-0.09138100000000	0.00000000000000	26.61737800000000	0.00000000000000	0.00000000000000	9.33019800000000	0.00000000000000	
7.21164400000000	-40.89500000000000	754.06564100000003	50.87549800000000	0.18883700000000	0.00000000000000	0.10139900000000	-17.83109700000000	88.55002700000000	14.74003600000000	0.40442900000000	0.00000000000000	-0.09192500000000	0.00000000000000	26.42208500000000	0.00000000000000	0.00000000000000	9.61594900000000	0.00000000000000	
7.21330200000000	-41.29169700000000	749.90129000000002	50.42721900000000	0.18801000000000	0.00000000000000	0.10135500000000	-17.39325100000000	93.78603500000000	14.86818000000000	0.40672500000000	0.00000000000000	-0.09244100000000	0.00000000000000	26.22776400000000	0.00000000000000	0.00000000000000	9.84031700000000	0.00000000000000	
7.21497400000000	-41.70808600000000	745.66361400000005	49.96485100000000	0.18718400000000	0.00000000000000	0.10130800000000	-16.80261500000000	98.93177300000001	14.90149400000000	0.40895100000000	0.00000000000000	-0.09293200000000	0.00000000000000	26.03460000000000	0.00000000000000	0.00000000000000	10.01164800000000	0.00000000000000	
7.21664000000000	-42.14417200000000	741.35335599999996	49.48874700000000	0.18635900000000	0.00000000000000	0.10125600000000	-16.09067800000000	104.04239400000000	14.85689100000000	0.41111400000000	0.00000000000000	-0.09340000000000	0.00000000000000	25.84276000000000	0.00000000000000	0.00000000000000	10.13868800000000	0.00000000000000	
7.21830700000000	-42.59988600000000	736.97114999999997	48.99926500000000	0.18553700000000	0.00000000000000	0.10120000000000	-15.28675400000000	109.17186700000001	14.75036100000000	0.41321700000000	0.00000000000000	-0.09384600000000	0.00000000000000	25.65239500000000	0.00000000000000	0.00000000000000	10.22984800000000	0.00000000000000	
7.21997900000000	-43.07507300000000	732.51752399999998	48.49676500000000	0.18471700000000	0.00000000000000	0.10113900000000	-14.41648400000000	114.36928100000000	14.59601600000000	0.41526700000000	0.00000000000000	-0.09427200000000	0.00000000000000	25.46363700000000	0.00000000000000	0.00000000000000	10.29263100000000	0.00000000000000	
7.22164300000000	-43.56949500000000	727.99289799999997	47.98161300000000	0.18390100000000	0.00000000000000	0.10107400000000	-13.50087700000000	119.67614399999999	14.40543300000000	0.41726500000000	0.00000000000000	-0.09468000000000	0.00000000000000	25.27660100000000	0.00000000000000	0.00000000000000	10.33321500000000	0.00000000000000	
7.22331000000000	-44.08283100000000	723.39758500000005	47.45417500000000	0.18309000000000	0.00000000000000	0.10100400000000	-12.55584300000000	125.12468500000000	14.18730400000000	0.41921500000000	0.00000000000000	-0.09507100000000	0.00000000000000	25.09137900000000	0.00000000000000	0.00000000000000	10.35621500000000	0.00000000000000	
7.22498200000000	-44.61466900000000	718.73179300000004	46.91482000000000	0.18228400000000	0.00000000000000	0.10092900000000	-11.59219800000000	130.73711800000001	13.94736500000000	0.42111900000000	0.00000000000000	-0.09544700000000	0.00000000000000	24.90804600000000	0.00000000000000	0.00000000000000	10.36460000000000	0.00000000000000	
7.22663900000000	-45.16451100000000	713.99562700000001	46.36391400000000	0.18148300000000	0.00000000000000	0.10084900000000	-10.61602500000000	136.52575800000000	13.68855400000000	0.42298000000000	0.00000000000000	-0.09580800000000	0.00000000000000	24.72665300000000	0.00000000000000	0.00000000000000	10.35975100000000	0.00000000000000	
7.22830900000000	-45.73176600000000	709.18908999999996	45.80182800000000	0.18069000000000	0.00000000000000	0.10076500000000	-9.62932000000000	142.49380400000001	13.41134700000000	0.42479900000000	0.00000000000000	-0.09615500000000	0.00000000000000	24.54723400000000	0.00000000000000	0.00000000000000	10.34162200000000	0.00000000000000	
